<mxfile host="app.diagrams.net" modified="2023-08-20T09:09:35.472Z" agent="Mozilla/5.0 (Macintosh; Intel Mac OS X 10_15_7) AppleWebKit/537.36 (KHTML, like Gecko) Chrome/115.0.0.0 Safari/537.36" etag="cZgt5uHyea75fcztTKWQ" version="21.6.2" type="github">
  <diagram name="v8.1.0" id="55T9Zc6ODIEdMzEwOYVZ">
    <mxGraphModel dx="1252" dy="837" grid="1" gridSize="10" guides="1" tooltips="1" connect="1" arrows="1" fold="1" page="1" pageScale="1" pageWidth="827" pageHeight="1169" math="0" shadow="0">
      <root>
        <mxCell id="0" />
        <mxCell id="1" parent="0" />
      </root>
    </mxGraphModel>
  </diagram>
</mxfile>
